<svg preserveAspectRatio="none" width="100%" height="100%" overflow="visible" style="display: block;" viewBox="0 0 24 24" fill="none" xmlns="http://www.w3.org/2000/svg">
<g id="Fingerprint">
<path id="Vector" d="M6.75 12C6.75537 13.9673 6.30077 15.9087 5.4225 17.6691C5.38058 17.7603 5.32075 17.8423 5.24657 17.91C5.17238 17.9777 5.08536 18.0298 4.99065 18.0632C4.89594 18.0967 4.79548 18.1107 4.69523 18.1046C4.59498 18.0985 4.49698 18.0723 4.40705 18.0276C4.31712 17.9829 4.23708 17.9205 4.17169 17.8443C4.1063 17.7681 4.05689 17.6795 4.02638 17.5838C3.99588 17.4881 3.98491 17.3872 3.99412 17.2872C4.00333 17.1872 4.03253 17.0901 4.08 17.0016C4.85438 15.4483 5.25503 13.7356 5.25 12C5.24824 10.9879 5.47495 9.98848 5.91323 9.07622C6.3515 8.16395 6.99005 7.36237 7.78125 6.73125C7.93653 6.60693 8.13483 6.54938 8.33253 6.57127C8.53024 6.59316 8.71115 6.69269 8.83547 6.84797C8.95979 7.00324 9.01733 7.20155 8.99545 7.39925C8.97356 7.59696 8.87403 7.77787 8.71875 7.90219C8.10323 8.39291 7.60648 9.01631 7.26559 9.72587C6.92469 10.4354 6.74844 11.2128 6.75 12ZM12 11.25C11.8011 11.25 11.6103 11.329 11.4697 11.4697C11.329 11.6103 11.25 11.8011 11.25 12C11.2498 14.922 10.5079 17.7961 9.09375 20.3531C8.99728 20.5272 8.9739 20.7324 9.02875 20.9237C9.08361 21.115 9.2122 21.2767 9.38625 21.3731C9.5603 21.4696 9.76554 21.493 9.95683 21.4381C10.1481 21.3833 10.3098 21.2547 10.4062 21.0806C11.9434 18.3009 12.7498 15.1764 12.75 12C12.75 11.8011 12.671 11.6103 12.5303 11.4697C12.3897 11.329 12.1989 11.25 12 11.25ZM12 8.25C11.0054 8.25 10.0516 8.64509 9.34835 9.34835C8.64509 10.0516 8.25 11.0054 8.25 12C8.25 12.1989 8.32902 12.3897 8.46967 12.5303C8.61032 12.671 8.80109 12.75 9 12.75C9.19891 12.75 9.38968 12.671 9.53033 12.5303C9.67098 12.3897 9.75 12.1989 9.75 12C9.75 11.4033 9.98705 10.831 10.409 10.409C10.831 9.98705 11.4033 9.75 12 9.75C12.5967 9.75 13.169 9.98705 13.591 10.409C14.0129 10.831 14.25 11.4033 14.25 12C14.2578 14.9821 13.6009 17.9285 12.3272 20.625C12.2851 20.7143 12.2611 20.811 12.2564 20.9097C12.2518 21.0083 12.2666 21.1068 12.3 21.1997C12.3334 21.2926 12.3848 21.378 12.4513 21.451C12.5177 21.524 12.5979 21.5833 12.6872 21.6253C12.7765 21.6674 12.8732 21.6914 12.9718 21.6961C13.0705 21.7007 13.169 21.6859 13.2619 21.6525C13.3548 21.6191 13.4402 21.5677 13.5132 21.5012C13.5862 21.4348 13.6455 21.3546 13.6875 21.2653C15.0547 18.3684 15.7593 15.2033 15.75 12C15.75 11.0054 15.3549 10.0516 14.6517 9.34835C13.9484 8.64509 12.9946 8.25 12 8.25ZM12 2.25C9.41498 2.25273 6.93661 3.28084 5.10872 5.10872C3.28084 6.93661 2.25273 9.41498 2.25 12C2.25139 12.9366 2.09286 13.8665 1.78125 14.7497C1.71499 14.9373 1.72596 15.1435 1.81176 15.323C1.89756 15.5025 2.05115 15.6406 2.23875 15.7069C2.42635 15.7731 2.63259 15.7622 2.8121 15.6764C2.9916 15.5906 3.12967 15.437 3.19594 15.2494C3.56388 14.2056 3.75125 13.1067 3.75 12C3.75 9.81196 4.61919 7.71354 6.16637 6.16637C7.71354 4.61919 9.81196 3.75 12 3.75C14.188 3.75 16.2865 4.61919 17.8336 6.16637C19.3808 7.71354 20.25 9.81196 20.25 12C20.2504 13.7136 20.0843 15.4232 19.7541 17.1047C19.735 17.2013 19.7351 17.3008 19.7544 17.3974C19.7738 17.494 19.812 17.5858 19.8668 17.6677C19.9217 17.7495 19.9921 17.8197 20.0741 17.8743C20.1561 17.929 20.248 17.9669 20.3447 17.9859C20.3926 17.9952 20.4412 17.9999 20.49 18C20.6636 17.9998 20.8317 17.9394 20.9657 17.8292C21.0997 17.7189 21.1914 17.5656 21.225 17.3953C21.5743 15.6181 21.7501 13.8112 21.75 12C21.747 9.41505 20.7188 6.93683 18.891 5.109C17.0632 3.28116 14.5849 2.25298 12 2.25ZM8.85 14.2659C8.65549 14.2272 8.45356 14.2672 8.28841 14.377C8.12326 14.4868 8.00832 14.6575 7.96875 14.8519C7.66443 16.3497 7.11957 17.7883 6.35531 19.1119C6.25586 19.2842 6.22892 19.4889 6.28044 19.6811C6.33195 19.8733 6.45769 20.0371 6.63 20.1366C6.80231 20.236 7.00707 20.263 7.19923 20.2114C7.3914 20.1599 7.55523 20.0342 7.65469 19.8619C8.49927 18.3982 9.10084 16.8072 9.43594 15.1509C9.45564 15.0543 9.45612 14.9548 9.43733 14.8581C9.41854 14.7613 9.38086 14.6692 9.32644 14.587C9.27202 14.5048 9.20193 14.4341 9.12018 14.379C9.03842 14.3239 8.94662 14.2855 8.85 14.2659ZM12 5.25C11.7179 5.25006 11.4361 5.26759 11.1562 5.3025C10.9626 5.33157 10.788 5.43525 10.6697 5.59137C10.5515 5.74749 10.499 5.94366 10.5235 6.13797C10.548 6.33227 10.6475 6.50929 10.8008 6.63119C10.954 6.75309 11.1489 6.8102 11.3438 6.79031C12.0826 6.69844 12.8326 6.76454 13.544 6.98426C14.2554 7.20397 14.912 7.57227 15.4703 8.06479C16.0287 8.55731 16.4761 9.16282 16.7829 9.84122C17.0897 10.5196 17.2489 11.2554 17.25 12C17.2498 12.9715 17.1897 13.9421 17.07 14.9062C17.0568 15.0043 17.0632 15.104 17.0887 15.1996C17.1143 15.2951 17.1585 15.3847 17.2188 15.4631C17.2791 15.5416 17.3543 15.6073 17.4401 15.6565C17.5259 15.7058 17.6206 15.7375 17.7188 15.75C17.7499 15.7537 17.7812 15.7556 17.8125 15.7556C17.9949 15.7552 18.1709 15.6884 18.3076 15.5676C18.4442 15.4468 18.5322 15.2803 18.555 15.0994C18.6815 14.073 18.7441 13.0398 18.7425 12.0056C18.742 10.2163 18.0319 8.5003 16.7679 7.23386C15.5039 5.96742 13.7893 5.25397 12 5.25ZM17.4309 17.2734C17.3355 17.2488 17.2362 17.2431 17.1386 17.2569C17.041 17.2706 16.9471 17.3035 16.8622 17.3535C16.7773 17.4036 16.7031 17.4699 16.6439 17.5486C16.5846 17.6274 16.5415 17.7171 16.5169 17.8125C16.38 18.3459 16.2216 18.8813 16.0481 19.4062C15.9847 19.5944 15.9984 19.8 16.0862 19.978C16.1741 20.156 16.329 20.2919 16.5169 20.3559C16.5939 20.3821 16.6746 20.3954 16.7559 20.3953C16.9131 20.3952 17.0662 20.3457 17.1937 20.2539C17.3212 20.162 17.4167 20.0324 17.4666 19.8834C17.6541 19.3284 17.8219 18.7584 17.9681 18.1912C17.9933 18.0958 17.9993 17.9964 17.986 17.8986C17.9726 17.8009 17.9401 17.7067 17.8903 17.6215C17.8405 17.5364 17.7743 17.4618 17.6957 17.4023C17.617 17.3427 17.5274 17.2992 17.4319 17.2744L17.4309 17.2734Z" fill="var(--fill-0, white)"/>
</g>
</svg>
